<svg xmlns="http://www.w3.org/2000/svg" viewBox="0 0 1180 650" width="1180" height="650"><rect x="0" y="0" width="1180" height="650" fill="#ffffff"/>
<rect x="252" y="36" width="180" height="70" rx="12" fill="#f5f3ff" stroke="#7c3aed" stroke-width="2" opacity="1"/>
<path d="M 264,52 L 285,52 L 292,59 L 292,90 L 264,90 Z" fill="#ffffff" stroke="#7c3aed" stroke-width="1.4" stroke-dasharray="4,3" stroke-linejoin="round"/>
<path d="M 285,52 L 285,59 L 292,59" fill="none" stroke="#7c3aed" stroke-width="1.4" stroke-linejoin="round"/>
<path d="M 275,56 L 296,56 L 303,63 L 303,94 L 275,94 Z" fill="#ffffff" stroke="#7c3aed" stroke-width="1.4" stroke-dasharray="4,3" stroke-linejoin="round"/>
<path d="M 296,56 L 296,63 L 303,63" fill="none" stroke="#7c3aed" stroke-width="1.4" stroke-linejoin="round"/>
<path d="M 286,60 L 307,60 L 314,67 L 314,98 L 286,98 Z" fill="#ffffff" stroke="#7c3aed" stroke-width="1.4" stroke-dasharray="4,3" stroke-linejoin="round"/>
<path d="M 307,60 L 307,67 L 314,67" fill="none" stroke="#7c3aed" stroke-width="1.4" stroke-linejoin="round"/>
<text x="368" y="66" font-family="Helvetica, Arial, sans-serif" font-size="13" fill="#7c3aed" font-weight="bold" text-anchor="middle" font-style="normal">Synthetic</text>
<text x="368" y="82" font-family="Helvetica, Arial, sans-serif" font-size="11" fill="#64748b" font-weight="normal" text-anchor="middle" font-style="normal">motif crops</text>
<line x1="342" y1="110" x2="342.0" y2="154.8" stroke="#7c3aed" stroke-width="2.4" stroke-linecap="round"/>
<polygon points="342,162 337.1,153.0 346.9,153.0" fill="#7c3aed"/>
<rect x="588" y="36" width="180" height="70" rx="12" fill="#eff6ff" stroke="#2563eb" stroke-width="2" opacity="1"/>
<path d="M 606,48 L 634,48 L 642,56 L 642,94 L 606,94 Z" fill="#ffffff" stroke="#2563eb" stroke-width="1.6" stroke-linejoin="round"/>
<path d="M 634,48 L 634,56 L 642,56" fill="none" stroke="#2563eb" stroke-width="1.6" stroke-linejoin="round"/>
<rect x="612" y="56" width="24.0" height="3.5" rx="2" fill="#cbd5e1" stroke="none" stroke-width="0" opacity="1"/>
<rect x="612" y="63" width="16.799999999999997" height="3.5" rx="2" fill="#cbd5e1" stroke="none" stroke-width="0" opacity="1"/>
<rect x="612" y="70" width="21.6" height="3.5" rx="2" fill="#cbd5e1" stroke="none" stroke-width="0" opacity="1"/>
<rect x="612" y="77" width="14.399999999999999" height="3.5" rx="2" fill="#cbd5e1" stroke="none" stroke-width="0" opacity="1"/>
<text x="700" y="66" font-family="Helvetica, Arial, sans-serif" font-size="13" fill="#2563eb" font-weight="bold" text-anchor="middle" font-style="normal">Real</text>
<text x="700" y="82" font-family="Helvetica, Arial, sans-serif" font-size="11" fill="#64748b" font-weight="normal" text-anchor="middle" font-style="normal">full pieces</text>
<line x1="678" y1="110" x2="678.0" y2="154.8" stroke="#2563eb" stroke-width="2.4" stroke-linecap="round"/>
<polygon points="678,162 673.0,153.0 683.0,153.0" fill="#2563eb"/>
<rect x="30" y="196" width="150" height="72" rx="12" fill="#f8fafc" stroke="#334155" stroke-width="2" opacity="1"/>
<line x1="61" y1="219" x2="74" y2="213.8" stroke="#cbd5e1" stroke-width="1" stroke-linecap="round"/>
<line x1="61" y1="219" x2="74" y2="225.89" stroke="#cbd5e1" stroke-width="1" stroke-linecap="round"/>
<line x1="61" y1="219" x2="74" y2="238.11" stroke="#cbd5e1" stroke-width="1" stroke-linecap="round"/>
<line x1="61" y1="219" x2="74" y2="250.2" stroke="#cbd5e1" stroke-width="1" stroke-linecap="round"/>
<line x1="61" y1="232" x2="74" y2="213.8" stroke="#cbd5e1" stroke-width="1" stroke-linecap="round"/>
<line x1="61" y1="232" x2="74" y2="225.89" stroke="#cbd5e1" stroke-width="1" stroke-linecap="round"/>
<line x1="61" y1="232" x2="74" y2="238.11" stroke="#cbd5e1" stroke-width="1" stroke-linecap="round"/>
<line x1="61" y1="232" x2="74" y2="250.2" stroke="#cbd5e1" stroke-width="1" stroke-linecap="round"/>
<line x1="61" y1="245" x2="74" y2="213.8" stroke="#cbd5e1" stroke-width="1" stroke-linecap="round"/>
<line x1="61" y1="245" x2="74" y2="225.89" stroke="#cbd5e1" stroke-width="1" stroke-linecap="round"/>
<line x1="61" y1="245" x2="74" y2="238.11" stroke="#cbd5e1" stroke-width="1" stroke-linecap="round"/>
<line x1="61" y1="245" x2="74" y2="250.2" stroke="#cbd5e1" stroke-width="1" stroke-linecap="round"/>
<line x1="74" y1="213.8" x2="87" y2="219" stroke="#cbd5e1" stroke-width="1" stroke-linecap="round"/>
<line x1="74" y1="213.8" x2="87" y2="232" stroke="#cbd5e1" stroke-width="1" stroke-linecap="round"/>
<line x1="74" y1="213.8" x2="87" y2="245" stroke="#cbd5e1" stroke-width="1" stroke-linecap="round"/>
<line x1="74" y1="225.89" x2="87" y2="219" stroke="#cbd5e1" stroke-width="1" stroke-linecap="round"/>
<line x1="74" y1="225.89" x2="87" y2="232" stroke="#cbd5e1" stroke-width="1" stroke-linecap="round"/>
<line x1="74" y1="225.89" x2="87" y2="245" stroke="#cbd5e1" stroke-width="1" stroke-linecap="round"/>
<line x1="74" y1="238.11" x2="87" y2="219" stroke="#cbd5e1" stroke-width="1" stroke-linecap="round"/>
<line x1="74" y1="238.11" x2="87" y2="232" stroke="#cbd5e1" stroke-width="1" stroke-linecap="round"/>
<line x1="74" y1="238.11" x2="87" y2="245" stroke="#cbd5e1" stroke-width="1" stroke-linecap="round"/>
<line x1="74" y1="250.2" x2="87" y2="219" stroke="#cbd5e1" stroke-width="1" stroke-linecap="round"/>
<line x1="74" y1="250.2" x2="87" y2="232" stroke="#cbd5e1" stroke-width="1" stroke-linecap="round"/>
<line x1="74" y1="250.2" x2="87" y2="245" stroke="#cbd5e1" stroke-width="1" stroke-linecap="round"/>
<circle cx="61" cy="219" r="3.4" fill="#334155"/>
<circle cx="61" cy="232" r="3.4" fill="#334155"/>
<circle cx="61" cy="245" r="3.4" fill="#334155"/>
<circle cx="74" cy="213.8" r="3.4" fill="#334155"/>
<circle cx="74" cy="225.89" r="3.4" fill="#334155"/>
<circle cx="74" cy="238.11" r="3.4" fill="#334155"/>
<circle cx="74" cy="250.2" r="3.4" fill="#334155"/>
<circle cx="87" cy="219" r="3.4" fill="#334155"/>
<circle cx="87" cy="232" r="3.4" fill="#334155"/>
<circle cx="87" cy="245" r="3.4" fill="#334155"/>
<text x="139" y="226" font-family="Helvetica, Arial, sans-serif" font-size="13" fill="#334155" font-weight="bold" text-anchor="middle" font-style="normal">NotaGen</text>
<text x="139" y="243" font-family="Helvetica, Arial, sans-serif" font-size="11" fill="#64748b" font-weight="normal" text-anchor="middle" font-style="normal">pretrained</text>
<line x1="182" y1="232" x2="220.0" y2="232.0" stroke="#64748b" stroke-width="2.6" stroke-linecap="round"/>
<polygon points="228,232 218.0,237.5 218.0,226.5" fill="#64748b"/>
<rect x="232" y="166" width="220" height="130" rx="14" fill="#f5f3ff" stroke="#7c3aed" stroke-width="2.4" opacity="1"/>
<text x="342" y="194" font-family="Helvetica, Arial, sans-serif" font-size="15" fill="#7c3aed" font-weight="bold" text-anchor="middle" font-style="normal">Phase 1</text>
<text x="342" y="212" font-family="Helvetica, Arial, sans-serif" font-size="12" fill="#334155" font-weight="normal" text-anchor="middle" font-style="normal">fine-tune on synthetic</text>
<rect x="262" y="224" width="160" height="24" rx="12.0" fill="#ffffff" stroke="#64748b" stroke-width="1.5" opacity="1"/>
<text x="342.0" y="240.32" font-family="Helvetica, Arial, sans-serif" font-size="12" fill="#64748b" font-weight="bold" text-anchor="middle" font-style="normal">motif bias OFF</text>
<text x="342" y="280" font-family="Helvetica, Arial, sans-serif" font-size="11" fill="#64748b" font-weight="italic" text-anchor="middle" font-style="normal">early stopping on eval loss</text>
<line x1="456" y1="232" x2="484.0" y2="232.0" stroke="#64748b" stroke-width="2.6" stroke-linecap="round"/>
<polygon points="492,232 482.0,237.5 482.0,226.5" fill="#64748b"/>
<line x1="510" y1="246" x2="510" y2="216" stroke="#059669" stroke-width="2.5" stroke-linecap="round"/>
<path d="M 510,216 L 532,222 L 510,228 Z" fill="#059669"/>
<text x="510" y="268" font-family="Helvetica, Arial, sans-serif" font-size="11" fill="#059669" font-weight="bold" text-anchor="middle" font-style="normal">best-eval</text>
<text x="510" y="282" font-family="Helvetica, Arial, sans-serif" font-size="11" fill="#059669" font-weight="bold" text-anchor="middle" font-style="normal">checkpoint</text>
<line x1="528" y1="232" x2="556.0" y2="232.0" stroke="#64748b" stroke-width="2.6" stroke-linecap="round"/>
<polygon points="564,232 554.0,237.5 554.0,226.5" fill="#64748b"/>
<rect x="568" y="166" width="220" height="130" rx="14" fill="#eff6ff" stroke="#2563eb" stroke-width="2.4" opacity="1"/>
<text x="678" y="194" font-family="Helvetica, Arial, sans-serif" font-size="15" fill="#2563eb" font-weight="bold" text-anchor="middle" font-style="normal">Phase 2</text>
<text x="678" y="212" font-family="Helvetica, Arial, sans-serif" font-size="12" fill="#334155" font-weight="normal" text-anchor="middle" font-style="normal">fine-tune on real</text>
<rect x="598" y="224" width="160" height="24" rx="12.0" fill="#fef3c7" stroke="#d97706" stroke-width="1.5" opacity="1"/>
<text x="678.0" y="240.32" font-family="Helvetica, Arial, sans-serif" font-size="12" fill="#d97706" font-weight="bold" text-anchor="middle" font-style="normal">motif bias ON (+4)</text>
<text x="678" y="280" font-family="Helvetica, Arial, sans-serif" font-size="11" fill="#64748b" font-weight="italic" text-anchor="middle" font-style="normal">early stopping on eval loss</text>
<line x1="792" y1="232" x2="820.0" y2="232.0" stroke="#64748b" stroke-width="2.6" stroke-linecap="round"/>
<polygon points="828,232 818.0,237.5 818.0,226.5" fill="#64748b"/>
<line x1="846" y1="246" x2="846" y2="216" stroke="#059669" stroke-width="2.5" stroke-linecap="round"/>
<path d="M 846,216 L 868,222 L 846,228 Z" fill="#059669"/>
<text x="846" y="268" font-family="Helvetica, Arial, sans-serif" font-size="11" fill="#059669" font-weight="bold" text-anchor="middle" font-style="normal">best-eval</text>
<text x="846" y="282" font-family="Helvetica, Arial, sans-serif" font-size="11" fill="#059669" font-weight="bold" text-anchor="middle" font-style="normal">checkpoint</text>
<line x1="864" y1="232" x2="892.0" y2="232.0" stroke="#64748b" stroke-width="2.6" stroke-linecap="round"/>
<polygon points="900,232 890.0,237.5 890.0,226.5" fill="#64748b"/>
<rect x="904" y="196" width="216" height="72" rx="12" fill="#ecfdf5" stroke="#059669" stroke-width="2.2" opacity="1"/>
<line x1="933" y1="219" x2="946" y2="213.8" stroke="#cbd5e1" stroke-width="1" stroke-linecap="round"/>
<line x1="933" y1="219" x2="946" y2="225.89" stroke="#cbd5e1" stroke-width="1" stroke-linecap="round"/>
<line x1="933" y1="219" x2="946" y2="238.11" stroke="#cbd5e1" stroke-width="1" stroke-linecap="round"/>
<line x1="933" y1="219" x2="946" y2="250.2" stroke="#cbd5e1" stroke-width="1" stroke-linecap="round"/>
<line x1="933" y1="232" x2="946" y2="213.8" stroke="#cbd5e1" stroke-width="1" stroke-linecap="round"/>
<line x1="933" y1="232" x2="946" y2="225.89" stroke="#cbd5e1" stroke-width="1" stroke-linecap="round"/>
<line x1="933" y1="232" x2="946" y2="238.11" stroke="#cbd5e1" stroke-width="1" stroke-linecap="round"/>
<line x1="933" y1="232" x2="946" y2="250.2" stroke="#cbd5e1" stroke-width="1" stroke-linecap="round"/>
<line x1="933" y1="245" x2="946" y2="213.8" stroke="#cbd5e1" stroke-width="1" stroke-linecap="round"/>
<line x1="933" y1="245" x2="946" y2="225.89" stroke="#cbd5e1" stroke-width="1" stroke-linecap="round"/>
<line x1="933" y1="245" x2="946" y2="238.11" stroke="#cbd5e1" stroke-width="1" stroke-linecap="round"/>
<line x1="933" y1="245" x2="946" y2="250.2" stroke="#cbd5e1" stroke-width="1" stroke-linecap="round"/>
<line x1="946" y1="213.8" x2="959" y2="219" stroke="#cbd5e1" stroke-width="1" stroke-linecap="round"/>
<line x1="946" y1="213.8" x2="959" y2="232" stroke="#cbd5e1" stroke-width="1" stroke-linecap="round"/>
<line x1="946" y1="213.8" x2="959" y2="245" stroke="#cbd5e1" stroke-width="1" stroke-linecap="round"/>
<line x1="946" y1="225.89" x2="959" y2="219" stroke="#cbd5e1" stroke-width="1" stroke-linecap="round"/>
<line x1="946" y1="225.89" x2="959" y2="232" stroke="#cbd5e1" stroke-width="1" stroke-linecap="round"/>
<line x1="946" y1="225.89" x2="959" y2="245" stroke="#cbd5e1" stroke-width="1" stroke-linecap="round"/>
<line x1="946" y1="238.11" x2="959" y2="219" stroke="#cbd5e1" stroke-width="1" stroke-linecap="round"/>
<line x1="946" y1="238.11" x2="959" y2="232" stroke="#cbd5e1" stroke-width="1" stroke-linecap="round"/>
<line x1="946" y1="238.11" x2="959" y2="245" stroke="#cbd5e1" stroke-width="1" stroke-linecap="round"/>
<line x1="946" y1="250.2" x2="959" y2="219" stroke="#cbd5e1" stroke-width="1" stroke-linecap="round"/>
<line x1="946" y1="250.2" x2="959" y2="232" stroke="#cbd5e1" stroke-width="1" stroke-linecap="round"/>
<line x1="946" y1="250.2" x2="959" y2="245" stroke="#cbd5e1" stroke-width="1" stroke-linecap="round"/>
<circle cx="933" cy="219" r="3.4" fill="#059669"/>
<circle cx="933" cy="232" r="3.4" fill="#059669"/>
<circle cx="933" cy="245" r="3.4" fill="#059669"/>
<circle cx="946" cy="213.8" r="3.4" fill="#059669"/>
<circle cx="946" cy="225.89" r="3.4" fill="#059669"/>
<circle cx="946" cy="238.11" r="3.4" fill="#059669"/>
<circle cx="946" cy="250.2" r="3.4" fill="#059669"/>
<circle cx="959" cy="219" r="3.4" fill="#059669"/>
<circle cx="959" cy="232" r="3.4" fill="#059669"/>
<circle cx="959" cy="245" r="3.4" fill="#059669"/>
<text x="1028" y="226" font-family="Helvetica, Arial, sans-serif" font-size="13" fill="#059669" font-weight="bold" text-anchor="middle" font-style="normal">motif-conditioned</text>
<text x="1028" y="243" font-family="Helvetica, Arial, sans-serif" font-size="13" fill="#059669" font-weight="bold" text-anchor="middle" font-style="normal">model</text>
<rect x="932" y="276" width="160" height="24" rx="12.0" fill="#ffffff" stroke="#d97706" stroke-width="1.5" opacity="1"/>
<text x="1012.0" y="292.32" font-family="Helvetica, Arial, sans-serif" font-size="12" fill="#d97706" font-weight="bold" text-anchor="middle" font-style="normal">inference: bias ON</text>
<text x="560" y="318" font-family="Helvetica, Arial, sans-serif" font-size="11" fill="#64748b" font-weight="italic" text-anchor="middle" font-style="normal">eval matched to each phase’s data</text>
<rect x="40" y="350" width="1100" height="272" rx="16" fill="#fffdf5" stroke="#d97706" stroke-width="2.4" opacity="1"/>
<text x="66" y="382" font-family="Helvetica, Arial, sans-serif" font-size="16" fill="#d97706" font-weight="bold" text-anchor="start" font-style="normal">Motif attention bias</text>
<text x="250" y="382" font-family="Helvetica, Arial, sans-serif" font-size="12" fill="#64748b" font-weight="italic" text-anchor="start" font-style="normal">— every generated token is pulled toward the motif</text>
<rect x="80" y="470" width="34" height="34" rx="6" fill="#fef3c7" stroke="#d97706" stroke-width="1.6" opacity="1"/>
<rect x="121" y="470" width="34" height="34" rx="6" fill="#fef3c7" stroke="#d97706" stroke-width="1.6" opacity="1"/>
<rect x="162" y="470" width="34" height="34" rx="6" fill="#fef3c7" stroke="#d97706" stroke-width="1.6" opacity="1"/>
<rect x="203" y="470" width="34" height="34" rx="6" fill="#f1f5f9" stroke="#cbd5e1" stroke-width="1.6" opacity="1"/>
<rect x="244" y="470" width="34" height="34" rx="6" fill="#f1f5f9" stroke="#cbd5e1" stroke-width="1.6" opacity="1"/>
<rect x="285" y="470" width="34" height="34" rx="6" fill="#ffffff" stroke="#334155" stroke-width="1.6" opacity="1"/>
<rect x="326" y="470" width="34" height="34" rx="6" fill="#ffffff" stroke="#334155" stroke-width="1.6" opacity="1"/>
<rect x="367" y="470" width="34" height="34" rx="6" fill="#ffffff" stroke="#334155" stroke-width="1.6" opacity="1"/>
<rect x="408" y="470" width="34" height="34" rx="6" fill="#ffffff" stroke="#334155" stroke-width="1.6" opacity="1"/>
<rect x="449" y="470" width="34" height="34" rx="6" fill="#ffffff" stroke="#334155" stroke-width="1.6" opacity="1"/>
<rect x="490" y="470" width="34" height="34" rx="6" fill="#ffffff" stroke="#334155" stroke-width="1.6" opacity="1"/>
<rect x="490.0" y="470" width="34" height="34" rx="6" fill="#ecfdf5" stroke="#059669" stroke-width="2.4" opacity="1"/>
<line x1="302.79999999999995" y1="490.0" x2="302.79999999999995" y2="480.0" stroke="#334155" stroke-width="1.5" stroke-linecap="round"/>
<ellipse cx="300.0" cy="491.0" rx="3.4" ry="2.652" fill="#334155" transform="rotate(-18 300.0 491.0)"/>
<line x1="343.79999999999995" y1="490.0" x2="343.79999999999995" y2="480.0" stroke="#334155" stroke-width="1.5" stroke-linecap="round"/>
<ellipse cx="341.0" cy="491.0" rx="3.4" ry="2.652" fill="#334155" transform="rotate(-18 341.0 491.0)"/>
<line x1="384.79999999999995" y1="490.0" x2="384.79999999999995" y2="480.0" stroke="#334155" stroke-width="1.5" stroke-linecap="round"/>
<ellipse cx="382.0" cy="491.0" rx="3.4" ry="2.652" fill="#334155" transform="rotate(-18 382.0 491.0)"/>
<line x1="425.79999999999995" y1="490.0" x2="425.79999999999995" y2="480.0" stroke="#334155" stroke-width="1.5" stroke-linecap="round"/>
<ellipse cx="423.0" cy="491.0" rx="3.4" ry="2.652" fill="#334155" transform="rotate(-18 423.0 491.0)"/>
<line x1="466.79999999999995" y1="490.0" x2="466.79999999999995" y2="480.0" stroke="#334155" stroke-width="1.5" stroke-linecap="round"/>
<ellipse cx="464.0" cy="491.0" rx="3.4" ry="2.652" fill="#334155" transform="rotate(-18 464.0 491.0)"/>
<text x="138.0" y="524" font-family="DejaVu Sans Mono, Menlo, monospace" font-size="11" fill="#d97706" font-weight="bold" text-anchor="middle" font-style="normal">%motif: 0,+1,+1,+1</text>
<text x="240.5" y="524" font-family="Helvetica, Arial, sans-serif" font-size="11" fill="#64748b" font-weight="normal" text-anchor="middle" font-style="normal">header</text>
<text x="384.0" y="524" font-family="Helvetica, Arial, sans-serif" font-size="11" fill="#64748b" font-weight="normal" text-anchor="middle" font-style="normal">generated so far</text>
<text x="507.0" y="524" font-family="Helvetica, Arial, sans-serif" font-size="11" fill="#059669" font-weight="bold" text-anchor="middle" font-style="normal">query</text>
<path d="M 507.0,466 Q 302.0,375.8 97.0,466" fill="none" stroke="#d97706" stroke-width="2.6" stroke-linecap="round"/>
<polygon points="97.0,466 95.6,458.1 102.9,460.6" fill="#d97706"/>
<path d="M 507.0,466 Q 322.5,384.82 138.0,466" fill="none" stroke="#d97706" stroke-width="2.6" stroke-linecap="round"/>
<polygon points="138.0,466 136.6,458.1 143.9,460.6" fill="#d97706"/>
<path d="M 507.0,466 Q 343.0,393.84000000000003 179.0,466" fill="none" stroke="#d97706" stroke-width="2.6" stroke-linecap="round"/>
<polygon points="179.0,466 177.6,458.1 184.9,460.6" fill="#d97706"/>
<path d="M 507.0,466 Q 363.5,402.86 220.0,466" fill="none" stroke="#cbd5e1" stroke-width="1.2" stroke-linecap="round"/>
<path d="M 507.0,466 Q 384.0,411.88 261.0,466" fill="none" stroke="#cbd5e1" stroke-width="1.2" stroke-linecap="round"/>
<path d="M 507.0,466 Q 404.5,420.9 302.0,466" fill="none" stroke="#cbd5e1" stroke-width="1.2" stroke-linecap="round"/>
<path d="M 507.0,466 Q 425.0,429.92 343.0,466" fill="none" stroke="#cbd5e1" stroke-width="1.2" stroke-linecap="round"/>
<path d="M 507.0,466 Q 445.5,438.94 384.0,466" fill="none" stroke="#cbd5e1" stroke-width="1.2" stroke-linecap="round"/>
<path d="M 507.0,466 Q 466.0,447.96 425.0,466" fill="none" stroke="#cbd5e1" stroke-width="1.2" stroke-linecap="round"/>
<path d="M 507.0,466 Q 486.5,456.98 466.0,466" fill="none" stroke="#cbd5e1" stroke-width="1.2" stroke-linecap="round"/>
<circle cx="322.5" cy="398" r="15" fill="#d97706"/>
<text x="322.5" y="403" font-family="Helvetica, Arial, sans-serif" font-size="12.5" fill="#ffffff" font-weight="bold" text-anchor="middle" font-style="normal">+4</text>
<line x1="620" y1="540" x2="620" y2="400" stroke="#e2e8f0" stroke-width="1.2" stroke-linecap="butt"/>
<text x="668" y="412" font-family="Helvetica, Arial, sans-serif" font-size="12.5" fill="#334155" font-weight="bold" text-anchor="start" font-style="normal">attention weights</text>
<rect x="668" y="464" width="12" height="64" rx="2" fill="#d97706" stroke="none" stroke-width="0" opacity="1"/>
<rect x="686" y="472" width="12" height="56" rx="2" fill="#d97706" stroke="none" stroke-width="0" opacity="1"/>
<rect x="704" y="468" width="12" height="60" rx="2" fill="#d97706" stroke="none" stroke-width="0" opacity="1"/>
<rect x="722" y="514" width="12" height="14" rx="2" fill="#cbd5e1" stroke="none" stroke-width="0" opacity="1"/>
<rect x="740" y="516" width="12" height="12" rx="2" fill="#cbd5e1" stroke="none" stroke-width="0" opacity="1"/>
<rect x="758" y="510" width="12" height="18" rx="2" fill="#cbd5e1" stroke="none" stroke-width="0" opacity="1"/>
<rect x="776" y="514" width="12" height="14" rx="2" fill="#cbd5e1" stroke="none" stroke-width="0" opacity="1"/>
<rect x="794" y="512" width="12" height="16" rx="2" fill="#cbd5e1" stroke="none" stroke-width="0" opacity="1"/>
<rect x="812" y="516" width="12" height="12" rx="2" fill="#cbd5e1" stroke="none" stroke-width="0" opacity="1"/>
<rect x="830" y="513" width="12" height="15" rx="2" fill="#cbd5e1" stroke="none" stroke-width="0" opacity="1"/>
<rect x="848" y="515" width="12" height="13" rx="2" fill="#cbd5e1" stroke="none" stroke-width="0" opacity="1"/>
<line x1="662" y1="528" x2="866" y2="528" stroke="#64748b" stroke-width="1.4" stroke-linecap="butt"/>
<text x="695" y="546" font-family="Helvetica, Arial, sans-serif" font-size="10.5" fill="#d97706" font-weight="bold" text-anchor="middle" font-style="normal">motif</text>
<text x="808" y="546" font-family="Helvetica, Arial, sans-serif" font-size="10.5" fill="#64748b" font-weight="normal" text-anchor="middle" font-style="normal">other positions</text>
<line x1="910" y1="540" x2="910" y2="400" stroke="#e2e8f0" stroke-width="1.2" stroke-linecap="butt"/>
<text x="1022" y="430" font-family="Helvetica, Arial, sans-serif" font-size="13.5" fill="#334155" font-weight="bold" text-anchor="middle" font-style="normal">Attention =</text>
<text x="1022" y="456" font-family="DejaVu Sans Mono, Menlo, monospace" font-size="12" fill="#334155" font-weight="normal" text-anchor="middle" font-style="normal">softmax( QKᵀ/√d + b·1[motif] )</text>
<text x="1022" y="486" font-family="Helvetica, Arial, sans-serif" font-size="12" fill="#64748b" font-weight="normal" text-anchor="middle" font-style="normal">b = +4 on motif key positions,</text>
<text x="1022" y="503" font-family="Helvetica, Arial, sans-serif" font-size="12" fill="#64748b" font-weight="normal" text-anchor="middle" font-style="normal">all layers, before softmax</text>
<text x="1022" y="530" font-family="Helvetica, Arial, sans-serif" font-size="11" fill="#64748b" font-weight="italic" text-anchor="middle" font-style="normal">b=+4 optimal; +6/+8 collapse</text>
<text x="590" y="600" font-family="Helvetica, Arial, sans-serif" font-size="12" fill="#64748b" font-weight="italic" text-anchor="middle" font-style="normal">Bias applied in Phase 2 training, matched eval, and inference — the loss itself stays unweighted cross-entropy.</text></svg>